<svg xmlns="http://www.w3.org/2000/svg" version="1.1" xmlns:xlink="http://www.w3.org/1999/xlink" xmlns:svgjs="http://svgjs.dev/svgjs" width="100%" height="100%" viewBox="0 125 1000 350"><rect width="1000" height="350" x="0" y="0" fill="#000000"/><g><circle r="166.66666666666666" cx="337.7990214029948" cy="360.0212235877514" fill="#ffffff" transform="matrix(0.7304287535941874,0,0,0.7304287535941874,0,37.03012731385817)"/><path d="M352.49352653901514 435.02120866699386Q325.4195724406566 435.02120866699386 307.70253121952175 423.79934408228235Q289.9854899983869 412.57747949757083 281.8825963727499 395.214136014063Q273.77970274711294 377.85079253055517 273.77970274711294 358.62249733955946L273.77970274711294 358.62249733955946Q273.77970274711294 337.1112440238803 284.9051043124717 320.32667865648943Q296.03050587783036 303.5421132890985 314.19770785594505 294.2816634312277Q332.36490983405974 285.0212135733568 353.2009220142691 285.0212135733568L353.2009220142691 285.0212135733568Q364.55140395811776 285.0212135733568 375.9018859019664 287.2077086786874Q387.2202135060308 289.4263581238023 394.1655508994339 293.1241071989938L394.1655508994339 293.1241071989938Q396.0305026069218 294.2816634312277 396.4806633639016 295.21413928497157Q396.96297846066574 296.11446079893125 397.18805883915564 298.68680798167316L397.18805883915564 298.68680798167316L399.72825168211324 324.37812546930786Q399.72825168211324 325.31060132305186 398.6993128090165 325.4070643424046Q397.63821959613546 325.53568170154176 397.18805883915564 324.8282862262877L397.18805883915564 324.8282862262877Q391.6253580564763 307.0147819858 378.088381007297 298.558190622536Q364.55140395811776 290.101599259272 344.87294801014224 290.101599259272L344.87294801014224 290.101599259272Q328.1848456621041 290.101599259272 316.0305052236487 297.7543321279292Q303.8761647851932 305.37491065680206 297.4131424885542 319.39420280274544Q290.91796585213086 333.4134949486888 290.91796585213086 352.15947504292046L290.91796585213086 352.15947504292046Q290.91796585213086 373.92796307687377 299.24593985625773 392.1916280743412Q307.606068200169 410.48744741159305 321.81828638481795 421.1305338801876Q336.06265890925124 431.80577468856654 353.4260023927591 431.80577468856654L353.4260023927591 431.80577468856654Q368.02407265481935 431.80577468856654 380.0497957341377 422.64178785004856Q392.1076731532404 413.5099553513147 399.2780909251334 395.214136014063L399.2780909251334 395.214136014063Q399.50317130362333 394.281660160319 400.66072753585723 394.5067405388089Q401.8182837680911 394.7639752570832 401.8182837680911 395.4392163925529L401.8182837680911 395.4392163925529L399.50317130362333 421.1305338801876Q399.0530105466435 424.1530418199094 398.57069544987945 424.86043729516336Q398.1205346928996 425.5356784306331 396.0305026069218 426.4681542843771L396.0305026069218 426.4681542843771Q375.1944904267124 435.02120866699386 352.49352653901514 435.02120866699386L352.49352653901514 435.02120866699386Z " fill="#000000" transform="matrix(0.7304287535941874,0,0,0.7304287535941874,0,37.03012731385817)"/><path d="M638.4962145278585 395.79713395428234Q621.0586887142662 395.79713395428234 609.6476712281743 388.56946589140387Q598.2366537420825 381.3417978285253 593.0178217883707 370.1585864991431Q587.798989834659 358.9753751697608 587.798989834659 346.5910041050006L587.798989834659 346.5910041050006Q587.798989834659 332.73624784693254 594.9645289457077 321.9258102285297Q602.1300680567562 311.11537261012694 613.8310206513876 305.15099323445645Q625.531973246019 299.1866138587859 638.9518268412777 299.1866138587859L638.9518268412777 299.1866138587859Q646.2623335065961 299.1866138587859 653.5728401719144 300.5948701002636Q660.8626371866229 302.02383599235134 665.3359217183757 304.4054458124976L665.3359217183757 304.4054458124976Q666.5370814537539 305.15099323445645 666.8270165622934 305.75157310214547Q667.1376613214429 306.3314433192245 667.2826288757127 307.9882153680219L667.2826288757127 307.9882153680219L668.9186912739001 324.5352262053856Q668.9186912739001 325.1358060730746 668.2559824543811 325.1979350249046Q667.5725639842523 325.2807736273444 667.2826288757127 324.82516131392515L667.2826288757127 324.82516131392515Q663.6998593201885 313.3520148760034 654.9810964133923 307.90537676558205Q646.2623335065961 302.4587386551607 633.5880273332963 302.4587386551607L633.5880273332963 302.4587386551607Q622.8397186667233 302.4587386551607 615.0114707361557 307.38763550033286Q607.1832228055882 312.29582269489504 603.0205830329847 321.3252303608407Q598.8372336097715 330.35463802678635 598.8372336097715 342.4283643323972L598.8372336097715 342.4283643323972Q598.8372336097715 356.44879779534483 604.2010331177529 368.21187934180614Q609.5855422763444 379.99567053887745 618.7392078459499 386.8505648907766Q627.9135830661652 393.7261688932856 639.0967943955475 393.7261688932856L639.0967943955475 393.7261688932856Q648.4989757724726 393.7261688932856 656.2443851006002 387.82391846944506Q664.0105040793379 381.9423776962144 668.6287561653605 370.1585864991431L668.6287561653605 370.1585864991431Q668.7737237196303 369.5580066314541 669.5192711415891 369.70297418572386Q670.2648185635479 369.86865139060353 670.2648185635479 370.3035540534129L670.2648185635479 370.3035540534129L668.7737237196303 386.8505648907766Q668.4837886110907 388.7972720481134 668.1731438519413 389.2528843615328Q667.8832087434017 389.687787024342 666.5370814537539 390.28836689203115L666.5370814537539 390.28836689203115Q653.1172278584952 395.79713395428234 638.4962145278585 395.79713395428234L638.4962145278585 395.79713395428234ZM696.6489134406461 395.362231291473Q692.4862736680426 395.362231291473 690.2496314021662 392.3800416036378Q688.0129891362898 389.39785191580256 688.1579566905596 383.5784400944018L688.1579566905596 383.5784400944018L689.0484716667881 301.7131912332019Q689.0484716667881 298.13042167767753 688.0129891362898 296.43223032766025Q686.9567969551814 294.71332932703297 684.4302195807654 294.71332932703297L684.4302195807654 294.71332932703297Q681.9036422063494 294.71332932703297 676.9747453611773 296.9499715929095L676.9747453611773 296.9499715929095L676.6848102526377 297.0949391471792Q676.2291979392185 297.0949391471792 675.939262830679 296.3493917252204Q675.6286180715294 295.60384430326155 676.2291979392185 295.31390919472204L676.2291979392185 295.31390919472204L695.4684633558779 285.911727817797L695.7583984644175 285.911727817797Q696.3589783321065 285.911727817797 696.8767195973556 286.3673401312162Q697.3944608626048 286.8022427940256 697.3944608626048 287.1128875531751L697.3944608626048 287.1128875531751L696.6489134406461 380.74121796083625Q696.6489134406461 385.2145024925892 697.7051056217543 387.3061772041958Q698.7405881522527 389.39785191580256 700.9772304181291 389.39785191580256L700.9772304181291 389.39785191580256Q704.7049675279233 389.39785191580256 710.3794117950542 382.5429575639034L710.3794117950542 382.5429575639034Q710.5243793493239 382.37728035902364 710.8143144578635 382.37728035902364L710.8143144578635 382.37728035902364Q711.4148943255526 382.37728035902364 711.9326355908017 382.9157312748828Q712.4710865066609 383.433472540132 712.1604417475114 383.7234076486716L712.1604417475114 383.7234076486716Q707.5421896614887 389.687787024342 704.0422587084042 392.52500915790756Q700.5423277553199 395.362231291473 696.6489134406461 395.362231291473L696.6489134406461 395.362231291473ZM782.842479279329 382.5429575639034Q782.9874468335988 382.37728035902364 783.2980915927483 382.37728035902364L783.2980915927483 382.37728035902364Q783.7329942555576 382.37728035902364 784.1886065689769 382.9157312748828Q784.6235092317862 383.433472540132 784.4785416775164 383.7234076486716L784.4785416775164 383.7234076486716Q780.1502247000333 389.687787024342 776.5053261926791 392.52500915790756Q772.8604276853249 395.362231291473 769.1326905755309 395.362231291473L769.1326905755309 395.362231291473Q760.7659917291041 395.362231291473 760.7659917291041 383.5784400944018L760.7659917291041 383.5784400944018L761.0766364882536 365.08472209970114Q756.1477396430814 378.9601880083791 748.1745241582441 387.4511447584656Q740.2013086734069 395.96281115916213 731.254739609901 395.96281115916213L731.254739609901 395.96281115916213Q725.5802953427701 395.96281115916213 722.0803643896857 392.0072678926583Q718.5804334366012 388.0517246261546 718.5804334366012 379.3950906711884L718.5804334366012 379.3950906711884Q718.5804334366012 369.1231039686447 723.5714592336033 358.60260145878146Q728.5624850306053 348.0820989489182 736.6185391178825 341.31004319945896Q744.6745932051597 334.5172777993897 753.0205824009764 334.5172777993897L753.0205824009764 334.5172777993897Q756.1477396430814 334.5172777993897 759.2127679333566 335.5734699804981Q762.2570865730218 336.60895251099646 764.659406043778 338.7006272226031L764.659406043778 338.7006272226031Q767.0410158639241 336.3190174024569 767.4759185267335 333.48179526889135L767.4759185267335 333.48179526889135Q767.6415957316132 333.1711505097419 768.5942396596716 333.1711505097419Q769.5675932383401 333.1711505097419 769.4226256840703 333.48179526889135L769.4226256840703 333.48179526889135L769.1326905755309 380.74121796083625Q768.9670133706511 389.39785191580256 773.2953303481343 389.39785191580256L773.2953303481343 389.39785191580256Q777.0230674579283 389.39785191580256 782.842479279329 382.5429575639034L782.842479279329 382.5429575639034ZM736.0179592501935 388.65230449384364Q742.1273061801337 388.65230449384364 747.8017504472648 382.7500540700031Q753.4761947143957 376.86851329677245 756.9761256674801 368.21187934180614Q760.4760566205646 359.57595503744994 760.4760566205646 351.975513263592L760.4760566205646 351.975513263592Q760.4760566205646 346.4460365507308 757.2660607760197 343.09107315191613Q754.0560649314748 339.73610975310146 748.837232977763 339.73610975310146L748.837232977763 339.73610975310146Q742.8728536020926 339.73610975310146 737.8196988532605 344.0644267305846Q732.7458344538186 348.39274370806766 729.7636447659834 355.9931854819256Q726.7814550781482 363.59362725578353 726.7814550781482 372.99580863270853L726.7814550781482 372.99580863270853Q726.7814550781482 381.0518627199858 729.0802262958545 384.84172878160973Q731.3997071641708 388.65230449384364 736.0179592501935 388.65230449384364L736.0179592501935 388.65230449384364ZM856.1960617398324 382.37728035902364Q856.3617389447122 382.23231280475386 856.6516740532518 382.23231280475386L856.6516740532518 382.23231280475386Q857.2522539209408 382.23231280475386 857.68715658375 382.7500540700031Q858.1427688971694 383.28850498586223 857.9978013428997 383.7234076486716L857.9978013428997 383.7234076486716Q853.2138720519972 389.8327545786118 849.6518121470829 392.60784776034745Q846.0690425915586 395.362231291473 842.1963379274947 395.362231291473L842.1963379274947 395.362231291473Q833.829639081068 395.362231291473 833.829639081068 384.03405240782104L833.829639081068 384.03405240782104L833.829639081068 363.30369214724396Q831.0131265981124 378.6495432492296 824.5102963065829 387.3061772041958Q818.0281756656632 395.96281115916213 808.7916714936179 395.96281115916213L808.7916714936179 395.96281115916213Q795.3718178983592 395.96281115916213 795.9723977660482 376.2679334290834L795.9723977660482 376.2679334290834L796.717945188007 349.7388709977156Q796.8629127422768 345.41055402023244 795.6617530068986 343.2360407061859Q794.4813029221306 341.0822370427493 792.3896282105238 341.0822370427493L792.3896282105238 341.0822370427493Q789.2624709684188 341.0822370427493 782.9874468335988 348.0820989489182L782.9874468335988 348.0820989489182Q782.6975117250593 348.39274370806766 782.3868669659098 348.39274370806766L782.3868669659098 348.39274370806766Q781.8069967488307 348.39274370806766 781.4342230378513 347.8750024428185Q781.0614493268719 347.3365515269594 781.2064168811416 346.90164886415005L781.2064168811416 346.90164886415005Q785.6797014128945 340.9372694884795 789.5524060769584 338.0172087524742Q793.4251107410222 335.11785766707874 797.4634926099658 335.11785766707874L797.4634926099658 335.11785766707874Q805.4988370466331 335.11785766707874 805.0639343838237 347.04661641841983L805.0639343838237 347.04661641841983L804.3183869618649 373.4307112955179Q804.1734194075951 381.9423776962144 806.4721906253014 386.0428885169879Q808.7916714936179 390.14339933776137 813.1199884711009 390.14339933776137L813.1199884711009 390.14339933776137Q818.9186906418918 390.14339933776137 823.6197813303543 383.7234076486716Q828.3208720188168 377.3241256101917 831.0752555499423 365.3953668588507Q833.829639081068 353.4666081075096 833.829639081068 337.49946748722505L833.829639081068 337.49946748722505Q833.829639081068 336.4639849567267 835.1136374188859 335.86340508903766Q836.376926106094 335.2628252213485 838.7585359262403 335.2628252213485L838.7585359262403 335.2628252213485Q842.4862730360343 335.2628252213485 842.7762081445737 336.1533401975771L842.7762081445737 336.1533401975771Q842.7762081445737 336.75392006526613 842.631240590304 340.2538510183506Q842.4862730360343 343.77449162204505 842.4862730360343 347.50222873183907L842.4862730360343 347.50222873183907L842.3413054817645 380.74121796083625Q842.3413054817645 385.2145024925892 843.314659060433 387.3890158066357Q844.2673029884913 389.54281947007235 846.5039452543679 389.54281947007235L846.5039452543679 389.54281947007235Q850.231682364162 389.54281947007235 856.1960617398324 382.37728035902364L856.1960617398324 382.37728035902364ZM878.8731291577465 395.65216640001256Q872.3081699143869 395.65216640001256 867.2343055149449 392.8149442664471Q862.1604411155031 389.9984317834916 862.1604411155031 386.1050174688178L862.1604411155031 386.1050174688178Q862.1604411155031 384.1790199620908 863.4444394533209 383.20566638342234Q864.707728140529 382.23231280475386 866.4887580929861 382.23231280475386L866.4887580929861 382.23231280475386Q868.1248204911735 382.23231280475386 869.3259802265516 383.20566638342234Q870.5271399619296 384.1790199620908 872.0182348058473 386.1050174688178L872.0182348058473 386.1050174688178Q874.5448121802633 389.2528843615328 876.8642930485796 390.8061081572803Q879.163064266286 392.3800416036378 883.2014461352295 392.3800416036378L883.2014461352295 392.3800416036378Q887.5090534621027 392.3800416036378 889.7456957279792 390.14339933776137Q891.9823379938556 387.90675707188484 891.9823379938556 383.7234076486716L891.9823379938556 383.7234076486716Q891.8373704395858 378.2146405864203 888.3374394865014 374.48690347662625Q884.8375085334169 370.7591663668321 877.9826141815179 366.43084938934896L877.9826141815179 366.43084938934896Q871.1070101790087 362.1025324118659 867.6070792259243 358.3747953020718Q864.1071482728398 354.64705819227777 864.1071482728398 349.28325868429624L864.1071482728398 349.28325868429624Q864.1071482728398 342.86326699520646 869.9265600942406 338.92843337931276Q875.7459719156413 334.97289011280895 883.0357689303498 334.97289011280895L883.0357689303498 334.97289011280895Q889.0001483060204 334.97289011280895 893.4113038859433 337.1266937762456Q897.8017498152564 339.3012070902921 897.8017498152564 342.5733318866669L897.8017498152564 342.5733318866669Q897.8017498152564 344.35436183912407 896.6212997304881 345.41055402023244Q895.42013999511 346.4460365507308 893.6391100426529 346.4460365507308L893.6391100426529 346.4460365507308Q891.692402885316 346.4460365507308 890.429114198108 345.6383601769421Q889.1658255109 344.8099741525434 887.2191183535631 342.86326699520646L887.2191183535631 342.86326699520646Q884.9824760876868 340.62662472933005 882.89080137608 339.4461746445619Q880.7991266644733 338.24501490918385 877.5270018680985 338.24501490918385L877.5270018680985 338.24501490918385Q874.2548770717237 338.24501490918385 872.3910085168268 339.73610975310146Q870.5271399619296 341.22720459701907 870.5271399619296 344.35436183912407L870.5271399619296 344.35436183912407Q870.5271399619296 348.6826788166072 873.8821033607444 352.1826097696917Q877.237066759559 355.703250373386 883.7813163523086 360.17653490513896L883.7813163523086 360.17653490513896Q891.2367905718968 365.3953668588507 894.9645276816909 369.2680715229145Q898.6922647914848 373.1407761869783 898.6922647914848 378.6495432492296L898.6922647914848 378.6495432492296Q898.6922647914848 382.832892672443 896.2485260195087 386.7884359389467Q893.7840775969228 390.7439792054504 889.2279544627299 393.1877179774265Q884.6925409791472 395.65216640001256 878.8731291577465 395.65216640001256L878.8731291577465 395.65216640001256ZM996.9595569357787 395.79713395428234Q979.5220311221865 395.79713395428234 968.1110136360946 388.56946589140387Q956.6999961500028 381.3417978285253 951.481164196291 370.1585864991431Q946.2623322425793 358.9753751697608 946.2623322425793 346.5910041050006L946.2623322425793 346.5910041050006Q946.2623322425793 332.73624784693254 953.427871353628 321.9258102285297Q960.5727008140666 311.11537261012694 972.2943630593079 305.15099323445645Q983.9953156539393 299.1866138587859 997.415169249198 299.1866138587859L997.415169249198 299.1866138587859Q1004.7256759145164 299.1866138587859 1012.0154729292249 300.5948701002636Q1019.3259795945432 302.02383599235134 1023.7992641262961 304.4054458124976L1023.7992641262961 304.4054458124976Q1025.0004238616739 305.15099323445645 1025.2903589702137 305.75157310214547Q1025.6010037293631 306.3314433192245 1025.745971283633 307.9882153680219L1025.745971283633 307.9882153680219L1027.3820336818203 324.5352262053856Q1027.3820336818203 325.1358060730746 1026.7193248623012 325.1979350249046Q1026.0359063921724 325.2807736273444 1025.745971283633 324.82516131392515L1025.745971283633 324.82516131392515Q1022.1632017281087 313.3520148760034 1013.4444388213126 307.90537676558205Q1004.7256759145164 302.4587386551607 992.0513697412166 302.4587386551607L992.0513697412166 302.4587386551607Q981.3030610746437 302.4587386551607 973.474813144076 307.38763550033286Q965.6465652135086 312.29582269489504 961.4839254409052 321.3252303608407Q957.3005760176918 330.35463802678635 957.3005760176918 342.4283643323972L957.3005760176918 342.4283643323972Q957.3005760176918 356.44879779534483 962.6643755256732 368.21187934180614Q968.0281750336547 379.99567053887745 977.2025502538702 386.8505648907766Q986.3769254740855 393.7261688932856 997.5601368034678 393.7261688932856L997.5601368034678 393.7261688932856Q1006.9623181803929 393.7261688932856 1014.7077275085205 387.82391846944506Q1022.4531368366482 381.9423776962144 1027.092098573281 370.1585864991431L1027.092098573281 370.1585864991431Q1027.2370661275504 369.5580066314541 1027.9826135495096 369.70297418572386Q1028.7281609714682 369.86865139060353 1028.7281609714682 370.3035540534129L1028.7281609714682 370.3035540534129L1027.2370661275504 386.8505648907766Q1026.926421368401 388.7972720481134 1026.6364862598616 389.2528843615328Q1026.3465511513218 389.687787024342 1025.0004238616739 390.28836689203115L1025.0004238616739 390.28836689203115Q1011.5805702664155 395.79713395428234 996.9595569357787 395.79713395428234L996.9595569357787 395.79713395428234ZM1104.0284505893087 382.5429575639034Q1104.1734181435781 382.37728035902364 1104.463353252118 382.37728035902364L1104.463353252118 382.37728035902364Q1104.9189655655373 382.37728035902364 1105.3745778789562 382.9157312748828Q1105.8094805417659 383.433472540132 1105.664512987496 383.7234076486716L1105.664512987496 383.7234076486716Q1101.3361960100128 389.687787024342 1097.6912975026585 392.52500915790756Q1094.0256893446945 395.362231291473 1090.2979522349005 395.362231291473L1090.2979522349005 395.362231291473Q1081.9519630390837 395.362231291473 1081.9519630390837 383.5784400944018L1081.9519630390837 383.5784400944018L1082.2626077982331 365.08472209970114Q1077.3337109530612 378.9601880083791 1069.3604954682237 387.4511447584656Q1061.3872799833862 395.96281115916213 1052.4407109198805 395.96281115916213L1052.4407109198805 395.96281115916213Q1046.7662666527494 395.96281115916213 1043.266335699665 392.0072678926583Q1039.7664047465805 388.0517246261546 1039.7664047465805 379.3950906711884L1039.7664047465805 379.3950906711884Q1039.7664047465805 369.1231039686447 1044.7574305435828 358.60260145878146Q1049.7484563405847 348.0820989489182 1057.8045104278622 341.31004319945896Q1065.8605645151392 334.5172777993897 1074.206553710956 334.5172777993897L1074.206553710956 334.5172777993897Q1077.3337109530612 334.5172777993897 1080.398739243336 335.5734699804981Q1083.443057883001 336.60895251099646 1085.8246677031475 338.7006272226031L1085.8246677031475 338.7006272226031Q1088.2269871739036 336.3190174024569 1088.6618898367128 333.48179526889135L1088.6618898367128 333.48179526889135Q1088.8068573909827 333.1711505097419 1089.7802109696513 333.1711505097419Q1090.7535645483194 333.1711505097419 1090.60859699405 333.48179526889135L1090.60859699405 333.48179526889135L1090.2979522349005 380.74121796083625Q1090.1529846806307 389.39785191580256 1094.4813016581138 389.39785191580256L1094.4813016581138 389.39785191580256Q1098.2090387679077 389.39785191580256 1104.0284505893087 382.5429575639034L1104.0284505893087 382.5429575639034ZM1057.203930560173 388.65230449384364Q1063.3132774901133 388.65230449384364 1068.9877217572443 382.7500540700031Q1074.6414563737653 376.86851329677245 1078.16209697746 368.21187934180614Q1081.662027930544 359.57595503744994 1081.662027930544 351.975513263592L1081.662027930544 351.975513263592Q1081.662027930544 346.4460365507308 1078.4520320859992 343.09107315191613Q1075.2420362414541 339.73610975310146 1070.0232042877424 339.73610975310146L1070.0232042877424 339.73610975310146Q1064.058824912072 339.73610975310146 1058.98496051263 344.0644267305846Q1053.931805763798 348.39274370806766 1050.9496160759627 355.9931854819256Q1047.9674263881275 363.59362725578353 1047.9674263881275 372.99580863270853L1047.9674263881275 372.99580863270853Q1047.9674263881275 381.0518627199858 1050.266197605834 384.84172878160973Q1052.5856784741504 388.65230449384364 1057.203930560173 388.65230449384364L1057.203930560173 388.65230449384364ZM1139.9596943976017 285.7667602635272Q1145.7791062190022 285.7667602635272 1149.506843328796 288.06553148123356Q1153.2345804385905 290.3850123495499 1153.2345804385905 293.5121695916549L1153.2345804385905 293.5121695916549Q1153.2345804385905 295.74881185753134 1151.8884531489425 296.8671329904696Q1150.5423258592946 297.9854541234078 1148.305683593418 297.9854541234078L1148.305683593418 297.9854541234078Q1146.0690413275415 297.9854541234078 1144.6607850860642 296.7221654361998Q1143.2318191939762 295.45887674899177 1141.9064015549384 293.0772669288456L1141.9064015549384 293.0772669288456Q1140.249629506141 290.3850123495499 1138.9242118671032 289.18385261417177Q1137.5780845774552 288.0034025294037 1135.1964747573088 288.0034025294037L1135.1964747573088 288.0034025294037Q1124.1582309821965 288.0034025294037 1124.1582309821965 320.6625215413218L1124.1582309821965 320.6625215413218Q1124.1582309821965 325.8813534950334 1124.3031985364664 328.55289842371917L1124.3031985364664 328.55289842371917L1124.5931336450058 337.8101122463745Q1131.468737647515 337.6444350414947 1141.3058216872491 336.8988876195359L1141.3058216872491 336.8988876195359Q1142.651948976897 336.8988876195359 1142.651948976897 338.24501490918385L1142.651948976897 338.24501490918385Q1142.4862717720175 339.73610975310146 1141.0780155305397 341.53784935616864Q1139.6697592890619 343.3188793086257 1138.0129872402645 343.02894420008624L1138.0129872402645 343.02894420008624Q1136.6875696012266 342.86326699520646 1132.6491877322833 342.34552572995733Q1128.6315155139496 341.8277844647081 1124.7588108498858 341.53784935616864L1124.7588108498858 341.53784935616864L1126.539840802343 397.14326124393017Q1126.6848083566124 399.5248710640765 1126.6848083566124 403.9981555958293L1126.6848083566124 403.9981555958293Q1126.6848083566124 415.63697923863083 1125.0487459584251 422.3469060362602Q1123.4126835602378 429.05683283388953 1119.7470754022734 432.03902252172475Q1116.1021768949195 435.02121220955996 1109.9928299649791 435.02121220955996L1109.9928299649791 435.02121220955996Q1104.318385697848 435.02121220955996 1101.3361960100128 433.157343654663Q1098.3540063221776 431.29347509976594 1098.3540063221776 428.6012205204702L1098.3540063221776 428.6012205204702Q1098.3540063221776 426.53025545947355 1099.6172950093855 425.2462571216555Q1100.9012933472036 423.98296843444757 1103.4278707216195 423.98296843444757L1103.4278707216195 423.98296843444757Q1105.9544480960353 423.98296843444757 1107.2384464338534 425.1012895673857Q1108.5017351210613 426.219610700324 1109.8478624107092 428.6012205204702L1109.8478624107092 428.6012205204702Q1110.8833449412077 430.40296012353735 1111.7738599174363 431.3763137022057Q1112.664374893665 432.3289576302643 1114.3211469424623 432.3289576302643L1114.3211469424623 432.3289576302643Q1116.5577892083384 432.3289576302643 1117.5104331363973 429.2846389905991Q1118.4837867150654 426.219610700324 1118.4837867150654 417.2730416368182L1118.4837867150654 417.2730416368182Q1118.4837867150654 411.1636947068779 1118.0488840522562 401.0159659079941L1118.0488840522562 401.0159659079941L1116.3921120034588 348.39274370806766Q1116.1021768949195 344.35436183912407 1115.3566294729603 342.80113804337657Q1114.6110820510016 341.22720459701907 1112.602245941835 340.70946333176994Q1110.593409832668 340.1917220665207 1105.519545433226 340.1917220665207L1105.519545433226 340.1917220665207Q1104.9189655655373 340.1917220665207 1104.9189655655373 339.3012070902921Q1104.9189655655373 338.38998246345363 1105.3745778789562 338.38998246345363L1105.3745778789562 338.38998246345363Q1111.338957254627 338.38998246345363 1113.5755995205031 336.9817262219758Q1115.8122417863797 335.5734699804981 1115.8122417863797 331.6800556658243L1115.8122417863797 331.6800556658243Q1115.5015970272302 313.3520148760034 1117.6761103412769 303.57705978809895Q1119.8299140047134 293.8228143508044 1124.965907355985 289.7844324818608Q1130.122610357867 285.7667602635272 1139.9596943976017 285.7667602635272L1139.9596943976017 285.7667602635272ZM1196.3313633579319 385.8150823602782L1196.6212984664712 385.8150823602782Q1197.0769107798906 385.8150823602782 1197.5946520451398 386.27069467369745Q1198.112393310389 386.7055973365068 1197.8224582018493 387.16120964992604L1197.8224582018493 387.16120964992604Q1187.964664511505 395.79713395428234 1175.8909382058941 395.79713395428234L1175.8909382058941 395.79713395428234Q1167.5449490100777 395.79713395428234 1161.5805696344069 391.92442929021854Q1155.6161902587364 388.0517246261546 1152.6340005709012 381.63173293706484Q1149.651810883066 375.23245089858506 1149.651810883066 367.9219442332667L1149.651810883066 367.9219442332667Q1149.651810883066 359.2653102783004 1153.6694831013997 351.60273955261255Q1157.707864970343 343.91945917631483 1164.790565478952 339.2183684878522Q1171.873265987561 334.5172777993897 1180.8198350510665 334.5172777993897L1180.8198350510665 334.5172777993897Q1186.784214426737 334.5172777993897 1190.1391778255515 336.69179111343624Q1193.4941412243666 338.8455947768729 1193.4941412243666 342.5733318866669L1193.4941412243666 342.5733318866669Q1193.3491736700967 349.13829113002646 1183.3464124254824 354.5849292404479Q1173.3643608314783 360.0108577002592 1158.7433475008415 362.1025324118659L1158.7433475008415 362.1025324118659Q1159.053992259991 375.0874833443153 1164.790565478952 382.9157312748828Q1170.527138697913 390.7439792054504 1181.109770159606 390.7439792054504L1181.109770159606 390.7439792054504Q1184.9824748236697 390.7439792054504 1189.0208566926135 389.54281947007235Q1193.0385289109472 388.3416597346942 1196.3313633579319 385.8150823602782L1196.3313633579319 385.8150823602782ZM1174.3998433619768 338.5556596683333Q1166.799401588119 338.5556596683333 1162.9266969240548 344.52003904400385Q1159.053992259991 350.4844184196744 1158.7433475008415 360.0108577002592L1158.7433475008415 360.0108577002592Q1182.7458325577936 355.9931854819256 1182.7458325577936 344.66500659827364L1182.7458325577936 344.66500659827364Q1182.7458325577936 341.6828169104383 1180.509190291917 340.1088834640808Q1178.2725480260406 338.5556596683333 1174.3998433619768 338.5556596683333L1174.3998433619768 338.5556596683333ZM1175.456035543085 323.4790340242773Q1175.1453907839355 323.7896787834268 1174.8554556753961 323.7896787834268L1174.8554556753961 323.7896787834268Q1174.3998433619768 323.7896787834268 1173.9649406991675 323.4790340242773Q1173.5093283857482 323.18909891573776 1173.654295940018 323.044131361468L1173.654295940018 323.044131361468L1181.4204149187558 287.2578551074448Q1181.5653824730252 286.512307685486 1184.402604606591 285.7667602635272Q1187.2191170895462 285.0212128415684 1189.165824246883 285.0212128415684L1189.165824246883 285.0212128415684Q1190.6569190908008 285.0212128415684 1190.5119515365313 285.6217927092574L1190.5119515365313 285.6217927092574L1175.456035543085 323.4790340242773Z " fill="#ffffff" transform="matrix(0.7304287535941874,0,0,0.7304287535941874,0,37.03012731385817)"/></g></svg>